<svg id="Capa_1" data-name="Capa 1" xmlns="http://www.w3.org/2000/svg" viewBox="0 0 176.29 191.08"><defs><style>.cls-1{fill:#22a8df;}.cls-2{fill:#4ec1ee;}.cls-3{fill:#2794d1;}</style></defs><polygon class="cls-1" points="0 150.03 0 68.68 16.11 76.12 15.03 157.12 0 150.03"/><polygon class="cls-1" points="16.11 71.91 0.2 64.15 0.2 43.34 16.11 50.83 16.11 71.91"/><polygon class="cls-1" points="62.86 72.98 62.86 72.98 19.93 52.43 19.83 73.73 62.86 94.29 62.86 116.01 19.93 95.46 19.93 116.81 62.86 137.32 62.86 158.55 19.93 138 19.93 159.35 62.86 179.86 62.86 179.86 85.64 191.08 85.64 83.88 62.86 72.98"/><polygon class="cls-2" points="145.21 30.17 101.8 8.32 101.8 8.32 85.64 0 0.4 43.34 16.3 50.83 85.64 16.36 130 38.08 145.21 30.17"/><polygon class="cls-2" points="149.05 31.76 86.58 62.54 62.41 50.83 86.58 39.34 105.97 49.46 124.41 39.6 86.63 20.62 71.91 27.62 71.91 27.62 67.84 29.56 67.83 29.57 67.83 29.57 19.93 52.43 35.26 59.76 85.64 83.88 102.57 75.7 102.58 75.71 170.76 42.71 149.05 31.76"/><path class="cls-3" d="M156.2,49.76h0L109.44,72.38h0l-23.8,11.5v107.2L101,183.43h0l54.89-28.66h0l11.56-5.8h0l6.31-3.68a4.58,4.58,0,0,0,2.53-4.1V47.59a4.73,4.73,0,0,0-6.8-4.26Zm-5,87.85-41.8,21.26V93.51l38.49-17.77A5.82,5.82,0,0,1,156.18,81l0,48.59A9,9,0,0,1,151.24,137.61Z"/></svg>